<svg id="Layer_1" data-name="Layer 1" xmlns="http://www.w3.org/2000/svg" viewBox="0 0 842.6 960.75"><defs><style>.cls-1{fill:#4d4d4d;stroke-width:40px;}.cls-1,.cls-2,.cls-3,.cls-4,.cls-5,.cls-6{stroke:#000;stroke-miterlimit:10;}.cls-2{fill:gray;}.cls-2,.cls-3,.cls-4,.cls-6{stroke-width:20px;}.cls-3,.cls-5{fill:#fff;}.cls-4{fill:none;}.cls-6{fill:#b3b3b3;}.cls-7{font-size:175px;font-family:CharcuterieFiligree, Charcuterie Filigree;}</style></defs><path class="cls-1" d="M1044.29,750.92,663,968.26a20,20,0,0,1-20-.11L264.12,746.61a20,20,0,0,1-9.9-17.38l2.43-438.89a20,20,0,0,1,10.09-17.26L647.67,56a20.72,20.72,0,0,1,20.73.11l378.51,221.33a20,20,0,0,1,9.91,17.38l-2.43,438.89A20,20,0,0,1,1044.29,750.92Z" transform="translate(-234.22 -33.23)"/><polyline class="cls-2" points="618.04 599.92 418.74 940.75 22.49 245.57 822.66 250 618.04 599.92"/><path class="cls-3" d="M256.71,278.8" transform="translate(-234.22 -33.23)"/><path class="cls-3" d="M1056.88,283.22" transform="translate(-234.22 -33.23)"/><line class="cls-4" x1="220.62" y1="593.16" x2="19.94" y2="707.55"/><line class="cls-4" x1="423.85" y1="16.79" x2="422.58" y2="247.78"/><path class="cls-5" d="M94.28,439.13" transform="translate(-234.22 -33.23)"/><line class="cls-4" x1="620.7" y1="595.37" x2="820.11" y2="711.97"/><polygon class="cls-6" points="422.58 247.78 220.62 593.16 620.7 595.37 422.58 247.78"/><text class="cls-7" transform="translate(316.53 552.1)">20</text></svg>